<svg width="24" height="24" viewBox="0 0 24 24" fill="none" xmlns="http://www.w3.org/2000/svg">
<path d="M11.5217 1.25312e-07C13.7917 0.000341837 16.011 0.699282 17.901 2.00906C19.791 3.31884 21.2674 5.18107 22.1447 7.36192C23.0221 9.54277 23.2614 11.945 22.8325 14.2671C22.4037 16.5891 21.3258 18.7274 19.7342 20.4135C18.1427 22.0995 16.1084 23.2582 13.8868 23.744C11.6651 24.2298 9.35527 24.0211 7.24716 23.144C5.13905 22.267 3.32668 20.7607 2.03762 18.8143C0.748551 16.868 0.0402554 14.5683 0.00166489 12.204C-0.0243358 10.6111 0.254436 9.02866 0.821717 7.54912C1.389 6.06959 2.23343 4.72253 3.30576 3.58653C4.37809 2.45053 5.65685 1.54833 7.06744 0.932561C8.47803 0.316788 9.99221 -0.000230106 11.5217 1.25312e-07ZM1.40134 12C1.41159 14.0797 2.01249 16.1097 3.12832 17.8343C4.24415 19.5589 5.82501 20.901 7.67174 21.6914C9.51847 22.4818 11.5485 22.6852 13.506 22.2759C15.4635 21.8667 17.2609 20.8632 18.6719 19.3918C20.0829 17.9203 21.0442 16.0469 21.4348 14.0073C21.8255 11.9678 21.6279 9.85345 20.867 7.93067C20.1062 6.00789 18.816 4.36269 17.1591 3.20232C15.5022 2.04194 13.5527 1.41832 11.5562 1.41C8.86239 1.41477 6.28037 2.53241 4.37662 4.51773C2.47287 6.50305 1.40287 9.19392 1.40134 12Z" fill="white"/>
<path d="M9.40199 11.658H7.83527V9.13195H9.14279C9.33287 9.13195 9.40775 9.06595 9.40199 8.86195C9.40199 8.26195 9.40199 7.60795 9.40199 6.97795C9.39045 6.62735 9.44641 6.27789 9.56657 5.95017C9.68673 5.62245 9.86867 5.32311 10.1016 5.0698C10.3346 4.81649 10.6139 4.61433 10.9231 4.47524C11.2323 4.33615 11.5651 4.26295 11.9018 4.25995C12.9329 4.19995 13.9754 4.19995 15.0122 4.19995H15.139V6.77995H14.897H13.5089C13.3925 6.76407 13.2742 6.77689 13.1635 6.81739C13.0528 6.85788 12.9527 6.92492 12.8715 7.01309C12.7902 7.10125 12.7299 7.20808 12.6956 7.32496C12.6612 7.44184 12.6537 7.5655 12.6737 7.68595C12.6737 8.10595 12.6737 8.51995 12.6737 8.93995C12.6737 9.08995 12.7255 9.13195 12.8638 9.13195H15.1678L14.8567 11.664H12.6737V19.1339H9.40199V11.658Z" fill="white"/>
</svg>
