<svg width="24" height="24" viewBox="0 0 24 24" fill="none" xmlns="http://www.w3.org/2000/svg">
<path d="M11.6817 1.25312e-07C13.9517 0.000341837 16.171 0.699282 18.061 2.00906C19.951 3.31884 21.4274 5.18107 22.3047 7.36192C23.1821 9.54277 23.4214 11.945 22.9925 14.2671C22.5637 16.5891 21.4858 18.7274 19.8942 20.4135C18.3027 22.0995 16.2684 23.2582 14.0467 23.744C11.8251 24.2298 9.51527 24.0211 7.40716 23.144C5.29905 22.267 3.48668 20.7607 2.19761 18.8143C0.908547 16.868 0.200251 14.5683 0.161661 12.204C0.13566 10.6111 0.414432 9.02866 0.981713 7.54912C1.549 6.06959 2.39343 4.72253 3.46576 3.58653C4.53809 2.45053 5.81685 1.54833 7.22744 0.932561C8.63803 0.316788 10.1522 -0.000230106 11.6817 1.25312e-07ZM1.56134 12C1.57159 14.0797 2.17248 16.1097 3.28832 17.8343C4.40415 19.5589 5.98501 20.901 7.83174 21.6914C9.67847 22.4818 11.7085 22.6852 13.666 22.2759C15.6235 21.8667 17.4209 20.8632 18.8319 19.3918C20.2429 17.9203 21.2042 16.0469 21.5948 14.0073C21.9855 11.9678 21.7879 9.85345 21.027 7.93067C20.2662 6.00789 18.976 4.36269 17.3191 3.20232C15.6622 2.04194 13.7127 1.41832 11.7162 1.41C9.02239 1.41477 6.44037 2.53241 4.53662 4.51773C2.63287 6.50305 1.56286 9.19392 1.56134 12Z" fill="white"/>
<path d="M14.867 5.49609C15.2745 5.47723 15.6812 5.54714 16.0613 5.70135C16.4413 5.85555 16.7863 6.09066 17.0741 6.39164C17.362 6.69262 17.5864 7.05285 17.733 7.44931C17.8796 7.84577 17.9452 8.26973 17.9256 8.69409C17.9256 10.8981 17.9256 13.0981 17.9256 15.2941C17.9446 15.7203 17.8778 16.146 17.7295 16.5438C17.5812 16.9415 17.3546 17.3026 17.0644 17.6037C16.7742 17.9049 16.4268 18.1395 16.0444 18.2925C15.662 18.4455 15.2531 18.5135 14.844 18.4921C12.7358 18.4921 10.6238 18.4921 8.50797 18.4921C8.09653 18.5129 7.68549 18.4435 7.30142 18.2883C6.91735 18.1332 6.56882 17.8959 6.27836 17.5916C5.9879 17.2873 5.76198 16.923 5.61522 16.522C5.46846 16.1211 5.40413 15.6925 5.42637 15.2641C5.42637 13.0801 5.42637 10.8941 5.42637 8.70609C5.40369 8.27522 5.46874 7.84423 5.61727 7.4414C5.76579 7.03858 5.99443 6.67303 6.28816 6.36875C6.5819 6.06447 6.9341 5.82835 7.32163 5.67589C7.70916 5.52342 8.12327 5.45806 8.53677 5.48409L14.867 5.49609ZM17.171 12.0121V8.62809C17.1854 8.3125 17.1371 7.99721 17.029 7.70202C16.9208 7.40683 16.7553 7.13811 16.5427 6.91274C16.3301 6.68737 16.0751 6.51021 15.7937 6.39239C15.5123 6.27457 15.2105 6.21863 14.9073 6.22809H8.45037C8.14411 6.21358 7.8383 6.26573 7.55246 6.38121C7.26662 6.49669 7.00703 6.67297 6.79024 6.89879C6.57346 7.12461 6.40424 7.39501 6.29338 7.69276C6.18251 7.99051 6.13245 8.30906 6.14637 8.62809V15.3601C6.13156 15.6793 6.18101 15.9983 6.29155 16.2965C6.4021 16.5946 6.57129 16.8654 6.78827 17.0914C7.00524 17.3175 7.2652 17.4937 7.55144 17.6089C7.83768 17.724 8.14388 17.7755 8.45037 17.7601H14.9246C15.2257 17.7701 15.5256 17.7157 15.8057 17.6C16.0858 17.4844 16.3401 17.3101 16.5529 17.0879C16.7656 16.8657 16.9323 16.6004 17.0426 16.3083C17.1529 16.0163 17.2045 15.7037 17.1941 15.3901C17.1998 14.2561 17.1941 13.1341 17.1941 12.0001L17.171 12.0121Z" fill="white"/>
<path d="M7.64964 12.0001C7.64964 11.1694 7.88611 10.3573 8.32916 9.66665C8.7722 8.97597 9.40191 8.43764 10.1387 8.11976C10.8754 7.80187 11.6861 7.71869 12.4682 7.88075C13.2504 8.04281 13.9688 8.44282 14.5327 9.0302C15.0966 9.61758 15.4806 10.366 15.6362 11.1807C15.7917 11.9954 15.7119 12.8399 15.4067 13.6073C15.1016 14.3748 14.5848 15.0307 13.9217 15.4922C13.2586 15.9537 12.4791 16.2 11.6816 16.2C10.6123 16.2 9.58673 15.7576 8.83059 14.9699C8.07444 14.1822 7.64964 13.114 7.64964 12.0001ZM14.8669 12.0001C14.8669 11.3424 14.6796 10.6995 14.3287 10.1527C13.9778 9.60595 13.4791 9.17991 12.8957 8.9285C12.3123 8.6771 11.6704 8.61162 11.0512 8.74037C10.4321 8.86911 9.86348 9.18629 9.41744 9.65176C8.97139 10.1172 8.66793 10.7101 8.54546 11.3553C8.42298 12.0004 8.487 12.669 8.7294 13.2763C8.97181 13.8835 9.38171 14.4022 9.90723 14.7668C10.4327 15.1313 11.0503 15.3252 11.6816 15.324C12.5275 15.3225 13.3383 14.9717 13.9364 14.3487C14.5345 13.7257 14.8712 12.8811 14.8727 12.0001H14.8669Z" fill="white"/>
<path d="M15.6273 7.23615C15.7168 7.22732 15.807 7.23805 15.8923 7.26765C15.9775 7.29725 16.0559 7.34508 16.1223 7.40806C16.1888 7.47104 16.2419 7.54779 16.2782 7.63339C16.3146 7.71899 16.3334 7.81156 16.3334 7.90515C16.3334 7.99875 16.3146 8.09131 16.2782 8.17692C16.2419 8.26252 16.1888 8.33927 16.1223 8.40225C16.0559 8.46523 15.9775 8.51306 15.8923 8.54266C15.807 8.57226 15.7168 8.58299 15.6273 8.57415C15.4577 8.57103 15.296 8.49904 15.1765 8.37352C15.0571 8.248 14.9895 8.07887 14.988 7.90215C14.988 7.72552 15.0553 7.55612 15.1752 7.43122C15.2951 7.30632 15.4578 7.23615 15.6273 7.23615Z" fill="white"/>
</svg>
