<svg width="24" height="24" viewBox="0 0 24 24" fill="none" xmlns="http://www.w3.org/2000/svg">
<path d="M12.1217 1.35434e-07C14.3916 0.000355354 16.6108 0.699206 18.5007 2.00882C20.3905 3.31842 21.8669 5.18042 22.7444 7.36104C23.6219 9.54166 23.8614 11.9437 23.4328 14.2656C23.0043 16.5875 21.9267 18.7258 20.3356 20.4121C18.7444 22.0983 16.7104 23.2573 14.4891 23.7435C12.2677 24.2297 9.95799 24.0216 7.84983 23.1451C5.74166 22.2687 3.92904 20.7631 2.63953 18.8172C1.35001 16.8714 0.641081 14.5721 0.601737 12.208C0.575221 10.6147 0.853611 9.03189 1.42066 7.5519C1.98771 6.0719 2.83207 4.72436 3.90445 3.58794C4.97683 2.45151 6.25576 1.54895 7.66661 0.932927C9.07745 0.316906 10.592 -0.000239265 12.1217 1.35434e-07ZM1.9995 12C2.01013 14.0794 2.6112 16.1089 3.72701 17.8331C4.84282 19.5574 6.42347 20.8991 8.2699 21.6893C10.1163 22.4796 12.146 22.6831 14.1032 22.2741C16.0604 21.8651 17.8577 20.862 19.2687 19.3911C20.6797 17.9202 21.6413 16.0473 22.0324 14.0082C22.4235 11.9692 22.2267 9.85511 21.4666 7.93235C20.7066 6.00958 19.4173 4.36408 17.7613 3.20308C16.1052 2.04208 14.1563 1.4175 12.1601 1.408C9.46466 1.41012 6.88028 2.527 4.97501 4.51315C3.06974 6.49931 1.9995 9.19221 1.9995 12Z" fill="white"/>
<path d="M12.7208 11.024C12.8907 10.8126 13.0728 10.6122 13.2661 10.424C13.5547 10.1769 13.8893 9.99464 14.2488 9.88864C14.6082 9.78264 14.9849 9.75517 15.355 9.80797C15.5643 9.82429 15.7722 9.85637 15.9771 9.90397C16.4047 10.004 16.7948 10.2323 17.0991 10.5608C17.4035 10.8892 17.6088 11.3033 17.6897 11.752C17.8277 12.3815 17.8896 13.0265 17.8741 13.672C17.8741 15.032 17.8741 16.4 17.8741 17.768C17.8741 17.928 17.8357 17.984 17.6744 17.984C16.9909 17.984 16.3073 17.984 15.6315 17.984C15.4702 17.984 15.4318 17.928 15.4395 17.776C15.4395 16.48 15.4395 15.184 15.4395 13.888C15.4422 13.5408 15.4061 13.1945 15.332 12.856C15.2889 12.6017 15.1565 12.3732 14.9606 12.215C14.7647 12.0568 14.5193 11.9801 14.2721 12C14.018 11.9644 13.7596 12.0152 13.5354 12.145C13.3112 12.2747 13.1332 12.4764 13.028 12.72C12.9244 12.9737 12.8646 13.2446 12.8513 13.52C12.8513 14.92 12.8513 16.328 12.8513 17.728V17.992H10.5857C10.4475 17.992 10.4168 17.944 10.4168 17.816V10.176C10.4168 10.032 10.4552 9.97597 10.6088 9.98397H12.5441C12.6977 9.98397 12.7361 10.032 12.7285 10.184C12.7131 10.472 12.7208 10.752 12.7208 11.024Z" fill="white"/>
<path d="M8.94222 17.968H6.55374V17.784C6.55374 15.248 6.55374 12.712 6.55374 10.184C6.55374 10.024 6.55374 9.97599 6.74574 9.98399H8.77326C8.92686 9.98399 8.96526 10.032 8.96526 10.176C8.96526 12.72 8.96526 15.2613 8.96526 17.8C8.96105 17.8564 8.95335 17.9126 8.94222 17.968Z" fill="white"/>
<path d="M9.15724 7.496C9.1522 7.6872 9.11105 7.8755 9.03615 8.05014C8.96125 8.22478 8.85406 8.38234 8.7207 8.51383C8.58734 8.64532 8.43042 8.74816 8.25891 8.81648C8.08739 8.88479 7.90464 8.91725 7.72109 8.912C7.53753 8.90675 7.35676 8.86389 7.18911 8.78586C7.02145 8.70784 6.8702 8.59618 6.74397 8.45726C6.61774 8.31835 6.51901 8.15489 6.45343 7.97623C6.38784 7.79757 6.35668 7.60721 6.36173 7.416C6.37191 7.02985 6.52894 6.66372 6.79827 6.39817C7.06761 6.13262 7.42718 5.98939 7.79789 6C8.16859 6.01061 8.52007 6.17418 8.775 6.45474C9.02993 6.73529 9.16743 7.10985 9.15724 7.496Z" fill="white"/>
</svg>
