<svg width="24" height="24" viewBox="0 0 24 24" fill="none" xmlns="http://www.w3.org/2000/svg">
<path d="M12.4017 1.35434e-07C14.6716 0.000355354 16.8908 0.699206 18.7807 2.00882C20.6705 3.31842 22.1469 5.18042 23.0244 7.36104C23.9019 9.54166 24.1414 11.9437 23.7128 14.2656C23.2842 16.5875 22.2067 18.7258 20.6156 20.4121C19.0244 22.0983 16.9904 23.2573 14.7691 23.7435C12.5477 24.2297 10.238 24.0216 8.12982 23.1451C6.02165 22.2687 4.20903 20.7631 2.91952 18.8172C1.63 16.8714 0.921072 14.5721 0.881728 12.208C0.855212 10.6147 1.1336 9.03189 1.70065 7.5519C2.2677 6.0719 3.11206 4.72436 4.18444 3.58794C5.25682 2.45151 6.53575 1.54895 7.9466 0.932927C9.35745 0.316906 10.8719 -0.000239265 12.4017 1.35434e-07ZM2.27949 12C2.29012 14.0794 2.89119 16.1089 4.007 17.8331C5.12281 19.5574 6.70346 20.8991 8.54989 21.6893C10.3963 22.4796 12.426 22.6831 14.3832 22.2741C16.3404 21.8651 18.1377 20.862 19.5487 19.3911C20.9597 17.9202 21.9213 16.0473 22.3124 14.0082C22.7035 11.9692 22.5067 9.85511 21.7466 7.93235C20.9866 6.00958 19.6973 4.36408 18.0412 3.20308C16.3852 2.04208 14.4363 1.4175 12.4401 1.408C9.74465 1.41012 7.16027 2.527 5.255 4.51315C3.34973 6.49931 2.27949 9.19221 2.27949 12Z" fill="white"/>
<path d="M11.4956 14.208C11.6157 14.3518 11.7439 14.4881 11.8796 14.616C12.3262 14.99 12.881 15.1958 13.454 15.2C14.2767 15.2273 15.0855 14.9745 15.758 14.48C16.5414 13.9142 17.1371 13.1092 17.4629 12.176C17.7699 11.3336 17.916 10.4368 17.893 9.53602C17.8901 8.9066 17.7593 8.28495 17.509 7.71202C17.0558 6.72268 16.284 5.93009 15.3279 5.47202C14.6073 5.10902 13.8235 4.90218 13.0239 4.86402C12.1527 4.80975 11.28 4.94039 10.4588 5.24802C9.25144 5.66594 8.22551 6.51635 7.56343 7.64802C7.25648 8.1759 7.05775 8.76424 6.97975 9.37602C6.92216 9.80326 6.92216 10.2368 6.97975 10.664C7.02929 11.133 7.16764 11.5871 7.38679 12C7.65143 12.4963 8.06386 12.8894 8.56183 13.12C8.60553 13.1493 8.65581 13.1663 8.70771 13.1692C8.75961 13.1721 8.81134 13.1609 8.85783 13.1367C8.90431 13.1125 8.94395 13.0761 8.97285 13.0311C9.00174 12.9861 9.0189 12.934 9.02263 12.88C9.06871 12.68 9.10711 12.48 9.16855 12.288C9.19477 12.2048 9.19787 12.1156 9.17749 12.0307C9.1571 11.9458 9.11407 11.8686 9.05335 11.808C8.86845 11.596 8.72961 11.345 8.6463 11.072C8.47337 10.4719 8.47337 9.83213 8.6463 9.23202C8.79673 8.56022 9.11777 7.9429 9.5758 7.44467C10.0338 6.94645 10.612 6.58564 11.2498 6.40002C11.8507 6.21996 12.4808 6.17094 13.1007 6.25602C13.5901 6.30239 14.0642 6.45791 14.4908 6.71202C14.8582 6.93521 15.1717 7.24301 15.4073 7.61185C15.6429 7.9807 15.7944 8.40081 15.8501 8.84002C15.9154 9.29349 15.9154 9.75455 15.8501 10.208C15.7783 10.8285 15.6205 11.4348 15.3817 12.008C15.2105 12.4697 14.9489 12.8893 14.6137 13.24C14.4139 13.4434 14.1699 13.5933 13.9024 13.6769C13.6348 13.7605 13.3519 13.7753 13.0777 13.72C12.9021 13.6885 12.735 13.6184 12.5875 13.5142C12.44 13.41 12.3156 13.2743 12.2226 13.116C12.1295 12.9577 12.0699 12.7806 12.0479 12.5964C12.0258 12.4122 12.0418 12.2253 12.0946 12.048C12.2866 11.408 12.4709 10.76 12.6553 10.12C12.7775 9.73066 12.8091 9.31661 12.7474 8.91202C12.7208 8.72379 12.6418 8.54778 12.5204 8.40564C12.399 8.26351 12.2403 8.16145 12.0639 8.11202C11.8144 8.02711 11.5454 8.02711 11.2959 8.11202C11.0879 8.18569 10.8981 8.30637 10.74 8.46542C10.582 8.62448 10.4598 8.81796 10.382 9.03202C10.2202 9.40963 10.1365 9.81851 10.1365 10.232C10.1365 10.6455 10.2202 11.0544 10.382 11.432C10.3895 11.4662 10.3895 11.5018 10.382 11.536L9.46039 15.472C9.25096 16.1601 9.14728 16.8783 9.15319 17.6C9.15319 18.072 9.21462 18.536 9.25302 19.008C9.25302 19.16 9.36055 19.2 9.46807 19.096C9.55766 19.0127 9.63757 18.9187 9.70614 18.816C9.89814 18.536 10.0748 18.248 10.2514 17.96C10.5665 17.4688 10.805 16.9288 10.958 16.36C11.0885 15.84 11.2268 15.312 11.3573 14.76L11.4956 14.208Z" fill="white"/>
<path d="M11.4955 14.2078L11.3573 14.7678C11.2267 15.2958 11.0885 15.8238 10.9579 16.3678C10.8049 16.9366 10.5664 17.4766 10.2514 17.9678C10.0747 18.2558 9.89809 18.5438 9.70609 18.8238C9.63751 18.9265 9.5576 19.0205 9.46801 19.1038C9.36049 19.2078 9.26833 19.1678 9.25297 19.0158C9.21457 18.5438 9.17617 18.0798 9.15313 17.6078C9.12981 16.889 9.21533 16.1709 9.40657 15.4798L10.3282 11.5438C10.3357 11.5096 10.3357 11.474 10.3282 11.4398C10.1664 11.0622 10.0827 10.6533 10.0827 10.2398C10.0827 9.82628 10.1664 9.4174 10.3282 9.0398C10.406 8.82574 10.5282 8.63225 10.6862 8.4732C10.8442 8.31414 11.034 8.19346 11.2421 8.1198C11.4916 8.03488 11.7606 8.03488 12.0101 8.1198C12.1865 8.16923 12.3452 8.27128 12.4666 8.41342C12.588 8.55555 12.6669 8.73156 12.6936 8.9198C12.7552 9.32438 12.7237 9.73843 12.6014 10.1278C12.4171 10.7678 12.2328 11.4158 12.0408 12.0558C11.9879 12.233 11.972 12.42 11.9941 12.6042C12.0161 12.7883 12.0757 12.9655 12.1687 13.1238C12.2618 13.282 12.3862 13.4178 12.5337 13.522C12.6811 13.6261 12.8483 13.6963 13.0238 13.7278C13.2981 13.783 13.581 13.7682 13.8485 13.6846C14.116 13.601 14.3601 13.4511 14.5598 13.2478C14.8951 12.8971 15.1566 12.4775 15.3278 12.0158C15.5667 11.4425 15.7245 10.8362 15.7963 10.2158C15.8616 9.76233 15.8616 9.30127 15.7963 8.8478C15.7406 8.40858 15.5891 7.98847 15.3535 7.61963C15.1179 7.25078 14.8044 6.94299 14.437 6.7198C14.0104 6.46569 13.5363 6.31017 13.0469 6.2638C12.4451 6.18379 11.8341 6.23003 11.2498 6.3998C10.6115 6.57902 10.0311 6.93336 9.56911 7.42586C9.10712 7.91836 8.78046 8.53098 8.62321 9.1998C8.45028 9.7999 8.45028 10.4397 8.62321 11.0398C8.70651 11.3128 8.84535 11.5638 9.03025 11.7758C9.09097 11.8363 9.134 11.9135 9.15439 11.9985C9.17477 12.0834 9.17167 12.1726 9.14545 12.2558C9.08401 12.4478 9.04561 12.6478 8.99953 12.8478C8.9958 12.9018 8.97864 12.9539 8.94975 12.9989C8.92085 13.0439 8.88121 13.0803 8.83473 13.1045C8.78824 13.1287 8.73651 13.1399 8.68461 13.137C8.63271 13.134 8.58244 13.1171 8.53873 13.0878C8.05389 12.8612 7.65055 12.4803 7.38673 11.9998C7.15832 11.5784 7.0146 11.1129 6.96433 10.6318C6.90674 10.2046 6.90674 9.77104 6.96433 9.3438C7.04234 8.73201 7.24106 8.14367 7.54801 7.6158C8.2101 6.48412 9.23602 5.63372 10.4434 5.2158C11.2646 4.90816 12.1373 4.77752 13.0085 4.8318C13.8081 4.86995 14.5919 5.07679 15.3125 5.4398C16.2686 5.89786 17.0403 6.69046 17.4936 7.6798C17.7438 8.25272 17.8747 8.87437 17.8776 9.5038C17.9006 10.4046 17.7545 11.3014 17.4475 12.1438C17.1217 13.077 16.526 13.882 15.7426 14.4478C15.0701 14.9423 14.2613 15.1951 13.4386 15.1678C12.8656 15.1635 12.3108 14.9577 11.8642 14.5838C11.7346 14.4657 11.6116 14.3402 11.4955 14.2078Z" fill="white"/>
</svg>
