<svg width="24" height="24" viewBox="0 0 24 24" fill="none" xmlns="http://www.w3.org/2000/svg">
<path d="M6.48236 15.84C7.71992 15.9262 8.94611 15.5472 9.93836 14.772C9.44255 14.7452 8.96465 14.5702 8.56172 14.268C8.16508 13.9683 7.86567 13.5497 7.70348 13.068H8.68268V13.008C8.16162 12.8783 7.69648 12.5724 7.35989 12.1382C7.02331 11.704 6.83424 11.166 6.8222 10.608L7.79564 10.884L7.83596 10.83C7.36022 10.4643 7.02917 9.93006 6.90506 9.32786C6.78095 8.72566 6.87234 8.09697 7.16204 7.56004C7.77247 8.32442 8.52827 8.94882 9.38181 9.39389C10.2354 9.83896 11.1681 10.0951 12.1214 10.146C12.0982 9.82449 12.0982 9.50159 12.1214 9.18004C12.181 8.73914 12.3593 8.32483 12.6355 7.98505C12.9117 7.64527 13.2747 7.39391 13.6824 7.26004C14.0884 7.09423 14.5313 7.05188 14.9596 7.13791C15.3878 7.22394 15.7838 7.43482 16.1016 7.74604C16.1505 7.80051 16.2138 7.83869 16.2835 7.85577C16.3532 7.87285 16.4261 7.86807 16.4932 7.84204C16.908 7.68004 17.3284 7.53004 17.7547 7.36804C17.5814 7.87507 17.2537 8.30914 16.8216 8.60404L16.8504 8.67004L18.06 8.32804C17.8036 8.73052 17.4843 9.08543 17.1153 9.37804C17.0475 9.4277 16.9929 9.4945 16.9566 9.57216C16.9203 9.64982 16.9036 9.7358 16.908 9.82204C16.9213 11.3753 16.4385 12.8891 15.5355 14.1251C14.6325 15.3612 13.3605 16.2495 11.9198 16.65C11.0091 16.9151 10.0554 16.9799 9.11933 16.8405C8.18327 16.701 7.28526 16.3603 6.48236 15.84Z" fill="white"/>
<path d="M12.2417 1.25312e-07C14.5117 0.000341837 16.731 0.699282 18.621 2.00906C20.511 3.31884 21.9874 5.18107 22.8647 7.36192C23.7421 9.54277 23.9814 11.945 23.5525 14.2671C23.1237 16.5891 22.0458 18.7274 20.4542 20.4135C18.8627 22.0995 16.8284 23.2582 14.6068 23.744C12.3851 24.2298 10.0753 24.0211 7.96716 23.144C5.85905 22.267 4.04668 20.7607 2.75762 18.8143C1.46855 16.868 0.760257 14.5683 0.721666 12.204C0.695665 10.6111 0.974437 9.02866 1.54172 7.54912C2.109 6.06959 2.95344 4.72253 4.02577 3.58653C5.0981 2.45053 6.37685 1.54833 7.78744 0.932561C9.19803 0.316788 10.7122 -0.000230106 12.2417 1.25312e-07ZM2.12135 12C2.13159 14.0797 2.73249 16.1097 3.84832 17.8343C4.96415 19.5589 6.54502 20.901 8.39175 21.6914C10.2385 22.4818 12.2685 22.6852 14.226 22.2759C16.1835 21.8667 17.9809 20.8632 19.3919 19.3918C20.8029 17.9203 21.7642 16.0469 22.1548 14.0073C22.5455 11.9678 22.3479 9.85345 21.587 7.93067C20.8262 6.00789 19.536 4.36269 17.8791 3.20232C16.2222 2.04194 14.2727 1.41832 12.2762 1.41C9.58239 1.41477 7.00037 2.53241 5.09662 4.51773C3.19287 6.50305 2.12287 9.19392 2.12135 12Z" fill="white"/>
</svg>
