<svg width="24" height="24" viewBox="0 0 24 24" fill="none" xmlns="http://www.w3.org/2000/svg">
<path d="M11.9906 17.2682C10.3605 17.2082 8.72468 17.1842 7.0946 17.1122C6.80223 17.095 6.51252 17.0447 6.2306 16.9622C5.88299 16.8577 5.57403 16.6458 5.34465 16.3543C5.11528 16.0629 4.9763 15.7057 4.94612 15.3302C4.85565 14.7801 4.79412 14.2253 4.7618 13.6682C4.66863 12.1702 4.69946 10.6667 4.85396 9.1742C4.87768 8.91193 4.92591 8.6527 4.99796 8.4002C5.09345 7.95136 5.33722 7.5517 5.68673 7.27097C6.03623 6.99024 6.46927 6.84628 6.91028 6.8642C9.79028 6.6662 12.6703 6.6842 15.5848 6.7742C16.1205 6.7742 16.6504 6.8282 17.1861 6.8642C17.6425 6.86971 18.0813 7.04816 18.4205 7.36618C18.7597 7.68421 18.9761 8.12004 19.0293 8.5922C19.134 9.06697 19.1938 9.55128 19.2079 10.0382C19.2079 11.4842 19.2079 12.9302 19.1618 14.3702C19.1363 14.886 19.0393 15.3953 18.8738 15.8822C18.7725 16.2261 18.569 16.5277 18.2926 16.7433C18.0162 16.959 17.6812 17.0777 17.3359 17.0822C16.4488 17.1602 15.5618 17.2082 14.669 17.2322L11.9906 17.2682ZM10.4642 14.1902L14.7554 11.7902L10.4642 9.3902V14.1902Z" fill="white"/>
<path d="M11.9617 1.25312e-07C14.2317 0.000341837 16.451 0.699282 18.341 2.00906C20.231 3.31884 21.7074 5.18107 22.5847 7.36192C23.4621 9.54277 23.7014 11.945 23.2725 14.2671C22.8437 16.5891 21.7658 18.7274 20.1742 20.4135C18.5827 22.0995 16.5484 23.2582 14.3268 23.744C12.1051 24.2298 9.79527 24.0211 7.68716 23.144C5.57905 22.267 3.76668 20.7607 2.47762 18.8143C1.18855 16.868 0.480258 14.5683 0.441667 12.204C0.415667 10.6111 0.694438 9.02866 1.26172 7.54912C1.829 6.06959 2.67344 4.72253 3.74577 3.58653C4.8181 2.45053 6.09685 1.54833 7.50744 0.932561C8.91803 0.316788 10.4322 -0.000230106 11.9617 1.25312e-07ZM1.84135 12C1.8516 14.0797 2.45249 16.1097 3.56832 17.8343C4.68416 19.5589 6.26502 20.901 8.11175 21.6914C9.95848 22.4818 11.9885 22.6852 13.946 22.2759C15.9035 21.8667 17.7009 20.8632 19.1119 19.3918C20.5229 17.9203 21.4842 16.0469 21.8748 14.0073C22.2655 11.9678 22.0679 9.85345 21.307 7.93067C20.5462 6.00789 19.256 4.36269 17.5991 3.20232C15.9422 2.04194 13.9927 1.41832 11.9962 1.41C9.30239 1.41477 6.72037 2.53241 4.81663 4.51773C2.91288 6.50305 1.84287 9.19392 1.84135 12Z" fill="white"/>
</svg>
